#!OML:ASF F:\VICON\USERDATA\INSTALL\rory3\rory3.ASF
:FULLY-SPECIFIED
:DEGREES
294
root 0.617547 16.9334 28.7999 1.25786 2.72004 8.20652
lowerback 4.85843 -3.39535 -9.25456
upperback 0.130046 -5.00537 1.38919
thorax -1.67261 -2.42613 6.91577
lowerneck -16.7095 -1.85171 -9.59165
upperneck 21.799 -0.99618 4.2118
head 9.75255 -0.782637 2.94369
rclavicle -1.75924e-014 -2.38542e-015
rhumerus -41.4123 -19.6148 -72.2282
rradius 25.0126
rwrist 10.3055
rhand -12.972 15.5337
rfingers 7.12502
rthumb 13.1202 -14.0335
lclavicle -1.75924e-014 -2.38542e-015
lhumerus -22.0419 1.91043 80.4333
lradius 34.3736
lwrist -11.03
lhand -12.6521 25.4802
lfingers 7.12502
lthumb 13.4285 55.0274
rfemur -30.719 0.0300062 10.578
rtibia 15.0688
rfoot -8.1212 -14.1833
rtoes -3.96327
lfemur 16.1224 -1.34632 -30.474
ltibia 11.8094
lfoot -14.8005 -3.41077
ltoes -13.6362
295
root 0.606 16.9188 29.0136 0.883821 3.09289 8.28859
lowerback 5.10817 -3.5117 -9.20331
upperback 0.279733 -5.17638 1.3433
thorax -1.63264 -2.51953 6.85604
lowerneck -16.8128 -1.88254 -9.6162
upperneck 21.7607 -1.02063 4.21064
head 9.76056 -0.794454 2.94367
rclavicle -2.127e-014 3.81667e-014
rhumerus -41.4854 -19.7739 -72.0469
rradius 24.7595
rwrist 10.366
rhand -13.1625 15.3135
rfingers 7.12502
rthumb 12.9366 -14.2655
lclavicle -2.127e-014 3.81667e-014
lhumerus -21.8016 2.10762 80.4083
lradius 34.3565
lwrist -11.1818
lhand -13.0745 25.3476
lfingers 7.12502
lthumb 13.0214 54.9212
rfemur -30.4634 -0.776537 10.7803
rtibia 16.7498
rfoot -8.21654 -12.8086
rtoes -5.09249
lfemur 17.4324 -1.68674 -30.4763
ltibia 11.4308
lfoot -14.2362 -3.92366
ltoes -13.9567
296
root 0.582313 16.905 29.2321 0.577753 3.39279 8.03563
lowerback 5.27353 -3.63668 -9.05007
upperback 0.268402 -5.34764 1.48638
thorax -1.70546 -2.60228 6.94042
lowerneck -16.4899 -1.78204 -9.69116
upperneck 21.654 -0.88229 4.16333
head 9.65245 -0.742067 2.95475
rclavicle 1.63997e-014 -1.82882e-014
rhumerus -41.823 -20.0157 -71.5243
rradius 24.4168
rwrist 10.8277
rhand -13.3378 15.1677
rfingers 7.12502
rthumb 12.7675 -14.4219
lclavicle 1.63997e-014 -1.82882e-014
lhumerus -21.863 2.16957 80.4294
lradius 34.4344
lwrist -11.1857
lhand -13.1396 25.4577
lfingers 7.12502
lthumb 12.9586 55.0353
rfemur -30.0351 -0.639614 11.021
rtibia 17.9742
rfoot -8.23638 -11.7269
rtoes -5.09298
lfemur 18.4855 -2.09117 -30.1277
ltibia 11.552
lfoot -13.7439 -4.15702
ltoes -15.4357
297
root 0.543481 16.8998 29.448 0.466721 3.59059 7.52773
lowerback 5.29097 -3.73237 -8.84831
upperback 0.15527 -5.46412 1.74067
thorax -1.80561 -2.65322 7.10669
lowerneck -16.0985 -1.67085 -9.68681
upperneck 21.63 -0.745427 4.05756
head 9.56056 -0.692656 2.93274
rclavicle -1.63997e-014 1.98785e-014
rhumerus -42.212 -20.4364 -70.8359
rradius 23.9347
rwrist 11.6579
rhand -13.1959 14.9959
rfingers 7.12502
rthumb 12.9044 -14.5852
lclavicle -1.63997e-014 1.98785e-014
lhumerus -22.0669 2.35192 80.4581
lradius 34.5513
lwrist -11.1073
lhand -12.8524 26.2423
lfingers 7.12502
lthumb 13.2355 55.8021
rfemur -29.731 0.18181 11.4422
rtibia 18.8538
rfoot -8.32239 -11.1533
rtoes -3.8209
lfemur 19.0823 -2.59191 -29.4718
ltibia 11.9487
lfoot -13.067 -4.33238
ltoes -16.561
298
root 0.509199 16.906 29.6753 0.449801 3.91687 7.13521
lowerback 5.1448 -3.8649 -8.66974
upperback 0.110975 -5.61404 1.96708
thorax -1.73601 -2.73228 7.23953
lowerneck -15.9185 -1.7505 -9.82964
upperneck 21.4813 -0.825622 4.00793
head 9.48291 -0.745104 2.92556
rclavicle 1.15842e-013 4.77083e-015
rhumerus -42.4239 -20.7286 -70.2611
rradius 23.5264
rwrist 12.2561
rhand -13.1323 15.5399
rfingers 7.12502
rthumb 12.9657 -14.0372
lclavicle 1.15842e-013 4.77083e-015
lhumerus -22.2648 2.54247 80.5968
lradius 34.6963
lwrist -10.9266
lhand -12.976 26.3625
lfingers 7.12502
lthumb 13.1164 55.93
rfemur -29.2089 0.495811 11.9116
rtibia 19.3798
rfoot -8.0379 -10.3757
rtoes -3.95381
lfemur 19.4789 -3.28081 -28.9822
ltibia 12.531
lfoot -12.1987 -4.60579
ltoes -16.5691
299
root 0.475874 16.933 29.9106 0.635851 4.35193 6.98556
lowerback 4.67057 -4.02796 -8.66307
upperback 0.0863057 -5.78769 2.11078
thorax -1.44926 -2.83399 7.35022
lowerneck -15.8908 -1.88086 -9.98058
upperneck 21.364 -0.963954 3.9832
head 9.44952 -0.821938 2.92219
rclavicle 6.82825e-014 -2.22639e-014
rhumerus -42.5913 -20.8339 -69.8834
rradius 23.3437
rwrist 12.4378
rhand -13.0882 15.6518
rfingers 7.12502
rthumb 13.0082 -13.9226
lclavicle 6.82825e-014 -2.22639e-014
lhumerus -22.439 2.62313 80.7777
lradius 34.7885
lwrist -10.7451
lhand -13.6934 25.2781
lfingers 7.12502
lthumb 12.4247 54.8888
rfemur -28.8513 0.658703 12.1227
rtibia 19.8553
rfoot -6.63357 -9.71954
rtoes -6.09609
lfemur 19.736 -4.0676 -28.7441
ltibia 12.9674
lfoot -10.9138 -4.96885
ltoes -15.4065
300
root 0.439537 16.9746 30.147 0.903775 4.71012 6.6769
lowerback 4.02281 -4.15864 -8.5148
upperback 0.0291066 -5.89797 2.2873
thorax -1.12127 -2.90581 7.39874
lowerneck -15.9925 -1.79191 -9.82283
upperneck 21.6955 -0.798377 3.6791
head 9.57176 -0.773772 2.81582
rclavicle -1.98785e-014 -3.97569e-014
rhumerus -42.7516 -21.3842 -69.2467
rradius 22.893
rwrist 13.0337
rhand -13.0277 15.3887
rfingers 7.12502
rthumb 13.0665 -14.182
lclavicle -1.98785e-014 -3.97569e-014
lhumerus -22.5204 2.67593 80.9497
lradius 34.8632
lwrist -10.5963
lhand -13.6646 25.4549
lfingers 7.12502
lthumb 12.4525 55.064
rfemur -28.8854 1.42141 12.2547
rtibia 20.4532
rfoot -4.53804 -9.71173
rtoes -8.48092
lfemur 19.9006 -4.65285 -28.2761
ltibia 13.284
lfoot -9.43537 -5.21923
ltoes -16.0187
301
root 0.41256 17.0033 30.3835 1.01833 5.12298 6.50378
lowerback 3.67953 -4.30015 -8.35806
upperback -0.0705932 -6.05309 2.37115
thorax -1.01076 -2.98676 7.37391
lowerneck -15.9997 -1.66925 -9.68265
upperneck 21.9773 -0.610134 3.45705
head 9.65811 -0.707097 2.74309
rclavicle 7.0817e-014 -1.35174e-014
rhumerus -42.947 -21.8881 -68.5794
rradius 22.3204
rwrist 13.5256
rhand -13.0591 15.5404
rfingers 7.12502
rthumb 13.0363 -14.0323
lclavicle 7.0817e-014 -1.35174e-014
lhumerus -22.7737 2.87363 81.0668
lradius 35.1121
lwrist -10.4675
lhand -13.0742 26.6105
lfingers 7.12502
lthumb 13.0216 56.184
rfemur -28.8317 1.84163 12.222
rtibia 21.0365
rfoot -3.1246 -9.84285
rtoes -7.26173
lfemur 20.0743 -5.24656 -28.039
ltibia 13.971
lfoot -8.02385 -5.40522
ltoes -18.2166
302
root 0.385578 17.0316 30.6179 1.0659 5.30979 6.24263
lowerback 3.58399 -4.32239 -8.15572
upperback -0.297212 -6.07124 2.49811
thorax -1.19742 -2.97998 7.39861
lowerneck -15.8884 -1.69506 -9.62445
upperneck 22.2731 -0.632335 3.28407
head 9.7443 -0.740802 2.67393
rclavicle 6.83322e-014 1.11319e-014
rhumerus -43.5051 -22.2398 -67.8575
rradius 22.1132
rwrist 13.9623
rhand -13.2632 15.4757
rfingers 7.12502
rthumb 12.8395 -14.1094
lclavicle 6.83322e-014 1.11319e-014
lhumerus -23.2423 3.02317 81.3054
lradius 35.1134
lwrist -10.3063
lhand -13.209 26.5876
lfingers 7.12502
lthumb 12.8917 56.1695
rfemur -28.6926 1.93532 12.558
rtibia 21.6442
rfoot -2.33334 -9.56114
rtoes -4.40386
lfemur 20.0026 -5.77997 -27.7687
ltibia 15.1257
lfoot -6.41374 -5.50179
ltoes -19.1799
